<svg width="100" height="100" viewBox="0 0 100 100" fill="none" xmlns="http://www.w3.org/2000/svg" xmlns:xlink="http://www.w3.org/1999/xlink">
<path d="M0.154799 61.1455H0V100H100V63.9319H99.6904H99.0712H98.6068L98.2209 63.6223H97.8328L97.5232 63.4675L97.0588 63.3127L96.7492 63.1579H96.2848L95.8204 63.0031L95.356 62.8483L94.7368 62.6935L94.2724 62.5387L93.8081 62.2291H93.1889L92.8793 61.9195L92.4149 61.7647H92.2601L91.7957 61.6099L91.3313 61.3003H91.0217L90.7121 60.9907L90.5573 60.8359L90.4025 60.9907L89.9381 60.8359L89.1641 60.5263L88.5449 60.3715L88.2353 60.2167L87.9257 60.0619L87.1517 59.9071L86.5325 59.5975L86.0681 59.4427L85.4489 59.2879L85.1393 58.9783L84.5201 58.8235L84.0557 58.6687L82.3529 58.0495L81.4241 57.7399H81.1145L80.6502 57.4304L80.1858 57.2756L79.5666 56.966L78.6378 56.5016L78.1734 56.2864V56.1046V56.0372V55.8824V55.5728H78.0186L77.8638 55.418L77.709 55.1084L77.5542 55.2632V55.1084L77.2446 54.9536V54.7988V54.644V54.1796L77.0375 54.0248L76.7802 54.1796V54.0248L76.6254 53.7152V53.4056L76.4706 53.2508L76.161 53.4056V53.2508V52.9412H75.8514L75.387 52.6316H74.7678H74.4582L73.839 52.7864L73.3746 53.2508L73.065 53.4056L72.7554 53.7152L72.4458 54.0248L71.9814 54.3344L71.6718 54.644L71.0526 54.7988L70.2786 54.9536L69.6594 55.2632L69.195 55.418L68.4211 55.7276L67.8019 56.0372L67.3375 56.3468L67.1827 56.5016L66.7183 56.8112L66.2539 56.966L65.6347 57.4304L65.1703 57.5851L64.7059 57.7399L64.2415 57.8947L63.9319 58.0495L63.5611 58.2043H63.0031H62.5387L62.2291 58.5139L61.7647 58.6687L61.6099 58.5139L61.1455 58.6687H60.8359L60.2167 58.5139H59.7523L59.4427 58.3591L59.2879 58.2043H58.9783L58.6687 58.0495L58.0495 57.8947L57.5851 57.5851L57.1207 57.4304L56.5015 57.1208L56.192 56.8112L55.7276 56.5016L55.2632 56.3468L54.644 55.8824V55.5728L54.4892 55.418L54.3344 55.1084V54.7988L54.1796 54.4892L54.0248 54.1796L53.87 53.87V53.5604L53.5604 53.2508L53.2508 52.7864L53.096 52.4768L52.9412 52.1672L52.7864 51.8576L52.6316 51.548L52.322 51.2384L52.1672 51.0836L51.8576 50.9288L51.548 50.774L51.3932 50.4644H51.2384H51.0836H50.774L50.4644 50.3096V50.1548L50.1548 50L50.3096 49.8452L50.1548 49.5356L50 49.3808L49.8452 49.226H49.6904V48.9164L49.3808 48.7616L49.226 48.6068L49.0712 48.452L48.7616 48.1424H48.2972H47.8328H47.5232H47.0588L46.4396 48.452L46.13 48.6068L45.8204 48.7616L45.6656 48.9164H45.2012L44.7368 49.226L44.2724 49.3808L43.9628 49.5356L43.4985 49.6904L43.1889 49.8452L42.8793 50L42.1053 50.1548V50.4644L41.7957 50.6192L41.4861 50.774L41.1765 51.0836L40.8669 51.3932L40.5573 51.7028H40.2477L39.9381 51.8576L39.6285 52.0124L39.3189 52.1672L39.1641 52.4768L38.6997 52.6316L38.5449 52.7864L38.0805 53.2508H37.7709L37.4613 53.4056L37.1517 53.7152L36.8421 53.87L36.2229 54.0248L35.9133 54.1796L35.7585 54.3344L35.4489 54.4892L34.9845 54.644H34.6749H34.5201L34.2105 54.7988L34.0557 55.1084L33.7461 55.2632L33.5913 55.5728H33.4365L33.1269 55.7276L32.9721 55.8824L32.8173 56.0372V56.192L32.6625 56.3468H32.5077L32.3529 56.192H32.1981H31.8885L31.5789 56.0372H31.2694L30.805 55.8824L30.4954 55.7276H30.031L29.7214 55.5728L29.5666 55.418H29.1022H28.7926L28.5514 55.5728H28.1734L27.8638 55.418H27.6239L27.3994 55.5728L27.0898 55.418H26.7802L26.4706 55.5728H26.161H25.8514L25.387 55.418L25.0232 55.7276H24.4582H24.1486H23.9938L23.6842 55.8824C23.6326 55.8824 23.5294 55.9133 23.5294 56.0372C23.5294 56.161 23.2198 56.0888 23.065 56.0372H22.6006L22.1362 56.192H21.8266L21.3622 56.3468L20.8978 56.5016L20.5882 56.6564L20.2786 56.8112H19.969L19.6594 56.966H19.195L18.8854 57.1208H18.5759H18.2663L18.1115 57.2756L17.9567 57.1208H17.8019H17.6471L17.3375 56.966L17.1827 57.1208H16.8731H16.5635L16.2539 57.2756L15.9443 57.4304L15.5479 57.7399H15.1703L14.8607 58.0495L14.5511 58.2043L14.3963 58.3591H14.2415H14.0867L13.7771 58.5139L13.4675 58.6687H13.3127L13.0031 58.9783L12.8483 59.1331H12.6935L12.5387 59.2879L12.3839 59.4427L12.2291 59.5975H12.0743L11.7647 59.7523L11.6099 59.9071L11.4551 60.0619H11.3003L11.1455 60.2167L10.8359 60.3715L10.3715 60.5263H10.2167H9.90712L9.75232 60.6811H9.44272L9.28793 60.8359L9.13313 60.9907L8.97833 61.1455H8.66873V61.3003H8.35913L8.04954 61.4551H7.89474L7.58514 61.6099L7.27554 61.7061L6.81115 61.7647H6.50155L6.19195 61.9195L6.03715 62.0743H5.88235L5.72755 62.2291L5.47237 62.3839H5.10836L4.95356 62.5387L4.79876 62.3839H4.64396H4.48916L4.33437 62.2291H4.17957L3.96286 62.0743H3.86997L3.71517 61.9195H3.40557L3.25077 61.7647H3.09598L2.78638 61.7061V61.7647H2.63158L2.47678 61.9195H2.32198H2.16718H2.01238H1.85759L1.70279 61.7647H1.54799L1.39319 61.6099H1.08359H0.928793H0.773994L0.619195 61.4551L0.464396 61.3003L0.309598 61.1455H0.154799Z"/>
</svg>
