<svg width="100" height="100" viewBox="0 0 100 100" fill="none" xmlns="http://www.w3.org/2000/svg" xmlns:xlink="http://www.w3.org/1999/xlink">
<path d="M25.4237 99.1554C25.3672 99.268 25.2881 99.527 25.4237 99.6622H32.8814V98.3108L33.3898 97.4662V96.6216L33.5593 96.1149V95.1013L33.3898 93.9189V93.2432V92.5676V91.8919V90.7095L33.7288 91.8919L34.0678 92.9054V93.9189L34.2373 94.9324V96.1149V96.9595L34.0678 97.973L33.7288 98.8176V99.6622H60.5085V98.8176L60.339 97.973L60 97.4662L59.661 96.6216L59.4915 95.4392L59.1525 94.2568V92.9054V91.2162V89.3581L59.4915 88.3446L59.661 87.3311L60 86.1486V84.9662V83.6149V82.6013V81.0811H60.5085V82.0946V83.1081V84.4595V85.8108V86.8243V88.1757L60.8475 89.3581V90.7095L61.1864 91.5541V92.5676L61.3559 93.5811V94.2568V95.4392L61.1864 96.1149V97.1284V98.8176V99.1554V100H67.1186V99.1554L67.2881 98.8176L67.1186 97.8041L67.2881 97.1284C67.2316 96.7905 67.1186 96.0135 67.1186 95.6081C67.1186 95.2027 67.2316 94.9887 67.2881 94.9324L67.1186 93.9189L67.2881 92.5676V91.5541V90.7095L67.1186 90.2027C67.1751 89.8649 67.2542 89.1216 67.1186 88.8513C66.9831 88.5811 67.1751 88.2883 67.2881 88.1757V87.3311V86.1486V84.4595V84.1216V83.6149V82.6013C67.2881 82.1959 67.0621 81.8694 66.9492 81.7568V81.0811V80.0676V79.223V78.5473V77.5338L66.6102 76.5203V75.8446V75L66.4407 74.1554L66.2712 73.3108V72.8041L66.1017 71.2838L65.9322 70.6081V69.9324L65.5932 69.0878V68.2432L65.4237 67.2297V66.723L65.0847 66.0473V65.2027L64.9153 64.3581L64.5763 63.1757L64.0678 62.1622L63.7288 61.4865L63.3898 61.1486L62.8814 60.473L62.2034 59.9662L61.6949 59.6284H61.017V59.2905C61.017 59.1216 60.9492 58.7838 60.678 58.7838H59.4915H58.6441C58.4746 58.7838 57.9661 58.6149 57.7966 58.4459C57.661 58.3108 57.0621 58.1644 56.7797 58.1081L56.1017 57.9392L55.4237 57.4324L54.4068 56.9257L53.8983 56.4189L53.3898 55.9122C52.9831 55.6419 53.2203 55.6869 53.3898 55.7432V55.4054L53.8983 54.8986L54.4068 54.5608V54.223V53.3784H54.9153C54.9718 53.2095 55.1525 52.7703 55.4237 52.3649V52.027L55.7627 51.6892L56.1017 51.1824V50.3378V50V49.6622C56.2712 49.5495 56.6441 49.2568 56.7797 48.9865C56.9153 48.7162 56.9492 48.7613 56.9492 48.8176V48.4797L56.6102 48.1419V47.973V47.6351H56.9492V47.2973L57.1186 47.1284L57.2881 46.7905L57.4576 46.6216V46.2838V45.9459V45.6081L57.1186 45.1014V44.7635V44.4257V44.0878C57.2316 43.9189 57.3898 43.5135 57.1186 43.2432C56.7797 42.9054 57.1186 42.7365 57.1186 41.5541V41.3851V41.0473C57.1751 40.9347 57.322 40.6757 57.4576 40.5405C57.6271 40.3716 57.4576 40.0338 57.4576 39.3581C57.4576 39.0203 57.6271 38.6824 57.4576 38.3446C57.2881 38.0068 57.1186 37.8378 56.9492 37.8378C56.7797 37.8378 56.7797 37.3311 56.1017 36.8243C55.5593 36.4189 55.6497 36.205 55.7627 36.1487L55.4237 35.8108L54.9153 35.473L54.4068 35.1351L53.8983 34.7973L53.3898 34.2905H52.8814L52.5424 33.7838L51.8644 33.277C51.6949 33.277 51.322 33.2432 51.1864 33.1081C51.0508 32.973 50.791 32.8266 50.678 32.7703H50.339H49.8305L49.4915 32.4324H48.9831H48.1356H47.1186H46.4407H45.5932H45.2542L44.7458 32.7703H44.2373H43.2203L42.5424 33.277H41.8644L41.1864 33.7838L40.678 34.2905L40.1695 34.7973L39.4915 35.473L38.9831 36.1487L38.1356 36.8243L37.4576 37.8378V38.3446L37.1186 39.1892C37.0621 39.3581 36.9153 39.7635 36.7797 40.0338C36.6441 40.3041 36.4972 40.7095 36.4407 40.8784L36.1017 41.8919L35.5932 42.7365V43.5811L35.0847 44.4257L34.7458 45.6081L34.2373 47.1284V47.6351L34.0678 48.4797V49.3243L33.7288 50.3378L33.3898 50.8446L32.8814 51.6892L32.2034 52.7027L31.8644 56.25L31.5254 56.9257L31.1864 57.9392V59.2905L30.1695 60.473L29.661 61.4865V61.9932L29.4915 62.1622L29.322 62.5L28.8136 62.8378L28.3051 63.1757L27.9661 64.0203L27.6271 64.3581L27.2881 64.8649L26.7797 65.3716L26.6102 66.0473V66.723V67.7365L26.4407 68.4122V69.0878V69.9324L26.6102 70.6081L26.7797 71.1149V72.4662V72.973V74.3243V74.8311V75.8446V80.5743V81.0811V82.0946L26.9492 83.1081V83.6149L27.1186 84.4595L26.9492 85.473L27.1186 86.1486V86.8243L26.9492 87.6689V88.6824L26.7797 89.6959V90.2027V91.2162V91.8919V92.5676C26.7797 92.7365 26.6102 93.0743 26.4407 93.2432C26.3051 93.3784 26.3842 93.75 26.4407 93.9189L26.1017 94.5946L25.9322 94.9324V95.6081L25.7627 96.1149V96.6216C25.7627 96.7568 25.6497 97.0158 25.5932 97.1284V97.4662V97.8041L25.4237 98.3108V98.8176V99.1554Z" fill="#C4C4C4"/>
</svg>